<svg width="200" height="150" xmlns="http://www.w3.org/2000/svg">
  <rect width="100%" height="100%" fill="#f5f5f5"/>
  <text x="50%" y="50%" font-family="Arial" font-size="16" text-anchor="middle" dominant-baseline="middle" fill="#5d4037">
    米粉
    <tspan x="50%" dy="20" font-size="12" fill="#795548">(Rice Noodles)</tspan>
  </text>
  <g transform="translate(100, 65)">
    <!-- 简化的米粉图形 -->
    <path d="M-30,-10 C-20,-15 -10,-15 0,-10 C10,-15 20,-15 30,-10 C30,0 20,10 0,15 C-20,10 -30,0 -30,-10 Z" fill="#f5f5f5" stroke="#bdbdbd" stroke-width="2"/>
    <path d="M-25,-5 C-15,-10 -5,-10 0,-5 C5,-10 15,-10 25,-5" fill="none" stroke="#bdbdbd" stroke-width="1"/>
    <path d="M-20,0 C-10,-5 0,-5 10,0 C15,-5 20,-5 25,0" fill="none" stroke="#bdbdbd" stroke-width="1"/>
    <path d="M-15,5 C-5,0 5,0 15,5" fill="none" stroke="#bdbdbd" stroke-width="1"/>
  </g>
</svg>