<svg width="200" height="150" xmlns="http://www.w3.org/2000/svg">
  <rect width="100%" height="100%" fill="#fff3e0"/>
  <text x="50%" y="50%" font-family="Arial" font-size="16" text-anchor="middle" dominant-baseline="middle" fill="#3e2723">
    粗面条
    <tspan x="50%" dy="20" font-size="12" fill="#5d4037">(Thick Noodles)</tspan>
  </text>
  <g transform="translate(100, 65)">
    <!-- 简化的粗面条图形 -->
    <path d="M-30,-15 C-25,-20 -15,-20 -10,-15 C-5,-20 5,-20 10,-15 C15,-20 25,-20 30,-15 C30,-5 25,5 20,15 C15,5 5,5 0,15 C-5,5 -15,5 -20,15 C-25,5 -30,-5 -30,-15 Z" fill="#ffe0b2" stroke="#fb8c00" stroke-width="2"/>
    <path d="M-25,-10 C-20,-15 -10,-15 -5,-10 C0,-15 10,-15 15,-10 C20,-15 25,-15 30,-10" fill="none" stroke="#fb8c00" stroke-width="1"/>
    <path d="M-25,0 C-20,-5 -10,-5 -5,0 C0,-5 10,-5 15,0 C20,-5 25,-5 30,0" fill="none" stroke="#fb8c00" stroke-width="1"/>
  </g>
</svg>